<svg width="350" height="183" viewBox="0 0 350 183" fill="none" xmlns="http://www.w3.org/2000/svg">
<path fill-rule="evenodd" clip-rule="evenodd" d="M173.094 25.4108L158.492 0.126392L129.294 0.122924L100.096 0L85.6035 25.2214L76.3143 41.2344L58.2867 41.2322L29.0886 41.1093L14.5962 66.3307L0 91.4922L14.7055 116.717L29.3075 142.001L58.5053 142.005L75.9139 142.078L84.6817 157.118L99.2837 182.402L128.482 182.406L157.68 182.529L172.172 157.307L184.799 135.54C182.331 135.482 179.979 135.247 177.744 134.835L166.581 154.079L153.967 176.031L128.511 175.899L103.054 175.871L90.8518 154.789L90.8068 154.815L85.3577 145.377L83.4488 142.11L83.4715 142.11L79.7176 135.608L79.6497 135.608L79.5785 135.486H72.0708L72.119 135.569L58.5343 135.498L33.0782 135.47L20.326 113.439L7.48347 91.4587L20.1877 69.559L32.8013 47.6069L58.2577 47.7389L58.8587 47.7395L58.8587 47.723H80.0569L83.8026 41.2353H83.7779L91.195 28.4496L103.809 6.49762L129.265 6.62957L154.721 6.6575L167.473 28.6892L180.316 50.6691L167.67 72.4684C170.549 70.8881 173.687 69.7691 177.082 69.1112L187.799 50.6356L173.094 25.4108ZM173.112 108.721H168.15C169.827 114.714 173.661 118.454 179.653 119.94L173.112 108.721ZM151.417 109.05C147.518 111.055 143.144 112.058 138.294 112.058H131.679V132.758H103.129V104.677L97.62 114.265L87.0785 132.437L97.62 150.609L108.087 168.824L129.095 168.781L150.104 168.824L160.571 150.609L170.865 132.864C166.926 131.28 163.45 128.998 160.435 126.016C155.644 121.278 152.638 115.623 151.417 109.05ZM158.074 59.8061C159.858 61.5504 161.345 63.2947 162.534 65.344L171.21 50.388L160.669 32.2158L150.202 14.0004L129.193 14.0435L108.185 14.0004L97.7181 32.2158L87.1766 50.388L97.7181 68.5603L103.129 77.977V51.9568H138.294C146.128 51.9568 152.722 54.5732 158.074 59.8061ZM79.1945 55.1097L89.6614 73.3251L100.203 91.4974L89.6614 109.67L79.1945 127.885L58.1861 127.842L37.1777 127.885L26.7108 109.67L16.1693 91.4974L26.7108 73.3251L37.1777 55.1097L58.1861 55.1528L79.1945 55.1097Z" fill="url(#paint0_linear_605_744)"/>
<path d="M135.438 59.499C141.828 59.499 147.205 61.6537 151.57 65.9631C155.935 70.2726 158.118 75.5643 158.118 81.8383C158.118 88.1123 155.935 93.404 151.57 97.7134C147.205 102.023 141.828 104.178 135.438 104.178H123.766V126.041H110.671V59.499H135.438ZM135.438 91.9147C138.222 91.9147 140.531 90.9641 142.365 89.0629C144.2 87.0983 145.117 84.6901 145.117 81.8383C145.117 78.9231 144.2 76.5149 142.365 74.6137C140.531 72.7125 138.222 71.7618 135.438 71.7618H123.766V91.9147H135.438Z" fill="url(#paint1_linear_605_744)"/>
<path d="M173.267 107.315C174.911 113.272 179.371 116.25 186.647 116.25C191.328 116.25 194.871 114.666 197.275 111.497L207.144 117.201C202.462 123.982 195.567 127.372 186.457 127.372C178.612 127.372 172.318 124.996 167.573 120.243C162.828 115.49 160.456 109.501 160.456 102.276C160.456 95.1151 162.797 89.1579 167.478 84.4049C172.159 79.5885 178.169 77.1803 185.508 77.1803C192.467 77.1803 198.192 79.5885 202.684 84.4049C207.238 89.2213 209.516 95.1785 209.516 102.276C209.516 103.861 209.358 105.54 209.041 107.315H173.267ZM173.077 97.8085H197.275C196.579 94.5764 195.124 92.1682 192.91 90.5839C190.759 88.9995 188.291 88.2073 185.508 88.2073C182.218 88.2073 179.498 89.0629 177.347 90.774C175.196 92.4217 173.773 94.7665 173.077 97.8085Z" fill="url(#paint2_linear_605_744)"/>
<path d="M243.969 90.2987H233.246V110.071C233.246 111.719 233.657 112.923 234.479 113.684C235.302 114.444 236.504 114.888 238.085 115.014C239.667 115.078 241.628 115.046 243.969 114.919V126.041C235.555 126.992 229.608 126.2 226.129 123.665C222.712 121.13 221.004 116.599 221.004 110.071V90.2987H212.749V78.5112H221.004V68.91L233.246 65.2027V78.5112H243.969V90.2987Z" fill="url(#paint3_linear_605_744)"/>
<path d="M261.46 107.315C263.105 113.272 267.565 116.25 274.84 116.25C279.521 116.25 283.064 114.666 285.468 111.497L295.337 117.201C290.656 123.982 283.76 127.372 274.65 127.372C266.806 127.372 260.511 124.996 255.766 120.243C251.022 115.49 248.649 109.501 248.649 102.276C248.649 95.1151 250.99 89.1579 255.672 84.4049C260.353 79.5885 266.363 77.1803 273.701 77.1803C280.66 77.1803 286.385 79.5885 290.877 84.4049C295.432 89.2213 297.709 95.1785 297.709 102.276C297.709 103.861 297.551 105.54 297.235 107.315H261.46ZM261.27 97.8085H285.468C284.772 94.5764 283.317 92.1682 281.103 90.5839C278.952 88.9995 276.485 88.2073 273.701 88.2073C270.412 88.2073 267.691 89.0629 265.541 90.774C263.39 92.4217 261.966 94.7665 261.27 97.8085Z" fill="url(#paint4_linear_605_744)"/>
<path d="M350.001 126.041H335.767L318.496 104.463V126.041H306.255V59.499H318.496V99.4245L334.818 78.5112H349.432L330.358 101.991L350.001 126.041Z" fill="url(#paint5_linear_605_744)"/>
<defs>
<linearGradient id="paint0_linear_605_744" x1="31.2464" y1="182.825" x2="221.052" y2="9.20686e-06" gradientUnits="userSpaceOnUse">
<stop stop-color="#BE9757"/>
<stop offset="1" stop-color="#E0C57E"/>
</linearGradient>
<linearGradient id="paint1_linear_605_744" x1="110.361" y1="127.646" x2="209.419" y2="74.7931" gradientUnits="userSpaceOnUse">
<stop stop-color="#1C1C1C"/>
<stop offset="1" stop-color="#4A4A4A"/>
</linearGradient>
<linearGradient id="paint2_linear_605_744" x1="110.361" y1="127.646" x2="209.419" y2="74.7931" gradientUnits="userSpaceOnUse">
<stop stop-color="#1C1C1C"/>
<stop offset="1" stop-color="#4A4A4A"/>
</linearGradient>
<linearGradient id="paint3_linear_605_744" x1="235.585" y1="127.482" x2="293.923" y2="17.0403" gradientUnits="userSpaceOnUse">
<stop stop-color="#BE9757"/>
<stop offset="1" stop-color="#E0C57E"/>
</linearGradient>
<linearGradient id="paint4_linear_605_744" x1="235.585" y1="127.482" x2="293.923" y2="17.0403" gradientUnits="userSpaceOnUse">
<stop stop-color="#BE9757"/>
<stop offset="1" stop-color="#E0C57E"/>
</linearGradient>
<linearGradient id="paint5_linear_605_744" x1="235.585" y1="127.482" x2="293.923" y2="17.0403" gradientUnits="userSpaceOnUse">
<stop stop-color="#BE9757"/>
<stop offset="1" stop-color="#E0C57E"/>
</linearGradient>
</defs>
</svg>
