<svg width="351" height="183" viewBox="0 0 351 183" fill="none" xmlns="http://www.w3.org/2000/svg">
<path fill-rule="evenodd" clip-rule="evenodd" d="M173.428 25.4108L158.826 0.126391L129.628 0.122923L100.429 0L85.9371 25.2214L76.6479 41.2344L58.6203 41.2323L29.4221 41.1094L14.9297 66.3308L0.333496 91.4923L15.039 116.717L29.641 142.002L58.8389 142.005L76.2476 142.078L85.0154 157.118L99.6173 182.402L128.815 182.406L158.013 182.529L172.506 157.307L185.133 135.54C182.664 135.482 180.313 135.247 178.078 134.836L166.914 154.079L154.301 176.031L128.844 175.899L103.388 175.871L91.1855 154.789L91.1404 154.815L85.6913 145.377L83.7824 142.11L83.8051 142.11L80.0512 135.608L79.9833 135.608L79.9121 135.486L72.4044 135.486L72.4527 135.569L58.8679 135.498L33.4118 135.471L20.6595 113.439L7.81697 91.4588L20.5212 69.5591L33.1348 47.607L58.5913 47.739L59.1923 47.7396L59.1923 47.723H80.3905L84.1362 41.2353H84.1115L91.5286 28.4497L104.142 6.49763L129.599 6.62958L155.055 6.65751L167.807 28.6892L180.65 50.6692L168.004 72.4678C170.884 70.8878 174.021 69.769 177.415 69.1113L188.133 50.6357L173.428 25.4108ZM173.446 108.721H168.483C170.16 114.715 173.994 118.455 179.987 119.941L173.446 108.721ZM151.75 109.05C147.851 111.056 143.477 112.059 138.627 112.059H132.012V132.759H103.462V104.679L97.9537 114.265L87.4121 132.437L97.9537 150.609L108.421 168.825L129.429 168.782L150.437 168.825L160.904 150.609L171.198 132.864C167.259 131.281 163.783 128.998 160.768 126.016C155.977 121.279 152.971 115.624 151.75 109.05ZM158.407 59.8069C160.191 61.5514 161.678 63.2959 162.867 65.3455L171.544 50.3881L161.002 32.2158L150.536 14.0004L129.527 14.0435L108.519 14.0004L98.0517 32.2158L87.5102 50.3881L98.0517 68.5604L103.462 77.9752V51.9576H138.627C146.461 51.9576 153.054 54.5741 158.407 59.8069ZM79.5281 55.1098L89.995 73.3252L100.537 91.4975L89.995 109.67L79.5281 127.885L58.5197 127.842L37.5112 127.885L27.0443 109.67L16.5028 91.4975L27.0443 73.3252L37.5112 55.1098L58.5197 55.1529L79.5281 55.1098Z" fill="#C1A26B"/>
<path d="M135.771 59.499C142.16 59.499 147.537 61.6537 151.903 65.9632C156.268 70.2726 158.45 75.5643 158.45 81.8383C158.45 88.1123 156.268 93.404 151.903 97.7135C147.537 102.023 142.16 104.178 135.771 104.178H124.099V126.042H111.003V59.499H135.771ZM135.771 91.9148C138.554 91.9148 140.863 90.9641 142.698 89.0629C144.533 87.0983 145.45 84.6901 145.45 81.8383C145.45 78.9231 144.533 76.5149 142.698 74.6137C140.863 72.7125 138.554 71.7619 135.771 71.7619H124.099V91.9148H135.771Z" fill="#323232"/>
<path d="M173.599 107.315C175.244 113.272 179.704 116.25 186.979 116.25C191.661 116.25 195.203 114.666 197.607 111.497L207.476 117.201C202.795 123.982 195.899 127.372 186.789 127.372C178.945 127.372 172.65 124.996 167.906 120.243C163.161 115.49 160.789 109.501 160.789 102.276C160.789 95.1151 163.129 89.158 167.811 84.405C172.492 79.5885 178.502 77.1803 185.84 77.1803C192.799 77.1803 198.525 79.5885 203.016 84.405C207.571 89.2214 209.849 95.1785 209.849 102.276C209.849 103.861 209.69 105.54 209.374 107.315H173.599ZM173.409 97.8085H197.607C196.911 94.5765 195.456 92.1682 193.242 90.5839C191.091 88.9996 188.624 88.2074 185.84 88.2074C182.551 88.2074 179.831 89.0629 177.68 90.774C175.529 92.4217 174.105 94.7666 173.409 97.8085Z" fill="#323232"/>
<path d="M244.301 90.2987H233.578V110.071C233.578 111.719 233.989 112.923 234.811 113.684C235.634 114.444 236.836 114.888 238.417 115.015C239.999 115.078 241.96 115.046 244.301 114.919V126.042C235.887 126.992 229.94 126.2 226.461 123.665C223.044 121.13 221.336 116.599 221.336 110.071V90.2987H213.081V78.5112H221.336V68.91L233.578 65.2027V78.5112H244.301V90.2987Z" fill="#C1A26B"/>
<path d="M261.792 107.315C263.437 113.272 267.897 116.25 275.172 116.25C279.854 116.25 283.396 114.666 285.8 111.497L295.669 117.201C290.988 123.982 284.092 127.372 274.982 127.372C267.138 127.372 260.843 124.996 256.099 120.243C251.354 115.49 248.982 109.501 248.982 102.276C248.982 95.1151 251.322 89.158 256.004 84.405C260.685 79.5885 266.695 77.1803 274.033 77.1803C280.992 77.1803 286.718 79.5885 291.209 84.405C295.764 89.2214 298.042 95.1785 298.042 102.276C298.042 103.861 297.883 105.54 297.567 107.315H261.792ZM261.602 97.8085H285.8C285.104 94.5765 283.649 92.1682 281.435 90.5839C279.284 88.9996 276.817 88.2074 274.033 88.2074C270.744 88.2074 268.024 89.0629 265.873 90.774C263.722 92.4217 262.298 94.7666 261.602 97.8085Z" fill="#C1A26B"/>
<path d="M350.333 126.042H336.099L318.828 104.463V126.042H306.587V59.499H318.828V99.4246L335.15 78.5112H349.764L330.69 101.991L350.333 126.042Z" fill="#C1A26B"/>
</svg>
