<svg width="350" height="183" viewBox="0 0 350 183" fill="none" xmlns="http://www.w3.org/2000/svg">
<path d="M173.094 25.4111L158.492 0.125977L129.294 0.123047L100.096 0L85.6035 25.2217L76.3145 41.2344L58.2866 41.2324L29.0884 41.1094L14.5962 66.3311L0 91.4922L14.7056 116.717L29.3076 142.002L58.5054 142.005L75.9141 142.078L84.6816 157.118L99.2837 182.402L128.482 182.406L157.68 182.529L172.172 157.308L184.8 135.54C184.001 135.521 183.215 135.484 182.441 135.428L181.989 135.394L181.636 135.363C181.391 135.341 181.147 135.317 180.904 135.292C180.596 135.26 180.289 135.224 179.984 135.185C179.694 135.147 179.406 135.107 179.12 135.065C178.879 135.029 178.64 134.992 178.402 134.952C178.182 134.915 177.962 134.876 177.744 134.836L166.581 154.079L153.967 176.031L128.511 175.899L103.055 175.871L90.8521 154.789L90.8071 154.815L85.3579 145.377L83.4487 142.11H83.4717L79.7178 135.608H79.6499L79.5786 135.486H72.0708L72.1191 135.569L58.5342 135.498L33.0781 135.471L20.3262 113.438L7.4834 91.459L20.1875 69.5586L32.8013 47.6074L58.2578 47.7393H58.8589V47.7227H80.0571L83.8027 41.2354H83.7778L91.1953 28.4492L103.809 6.49805L129.265 6.62988L154.721 6.65723L167.474 28.6895L180.316 50.6689L167.67 72.4678C170.55 70.8877 173.687 69.7686 177.082 69.1113L187.8 50.6357L173.094 25.4111Z" fill="#323232"/>
<path d="M151.417 109.051C147.518 111.056 143.143 112.059 138.293 112.059H131.678V132.76H103.128V104.68L97.6201 114.265L87.0786 132.438L97.6201 150.609L108.087 168.824L129.096 168.781L150.104 168.824L160.571 150.609L170.865 132.864C166.926 131.281 163.449 128.998 160.434 126.017C155.644 121.279 152.638 115.624 151.417 109.051Z" fill="#323232"/>
<path d="M161.126 63.2256C161.634 63.9023 162.104 64.6045 162.534 65.3457L171.21 50.3877L160.669 32.2158L150.202 14L129.193 14.0439L108.185 14L97.7183 32.2158L87.1768 50.3877L97.7183 68.5605L103.128 77.9756V51.958H138.293C146.127 51.958 152.721 54.5742 158.073 59.8066C159.212 60.9199 160.229 62.0332 161.126 63.2256Z" fill="#323232"/>
<path d="M79.1948 55.1094L89.6616 73.3252L100.203 91.4971L89.6616 109.67L79.1948 127.885L58.186 127.842L37.1777 127.885L26.7109 109.67L16.1694 91.4971L26.7109 73.3252L37.1777 55.1094L58.186 55.1533L79.1948 55.1094Z" fill="#323232"/>
<path fill-rule="evenodd" clip-rule="evenodd" d="M151.569 65.9629C147.204 61.6533 141.827 59.499 135.437 59.499H110.67V126.042H123.765V104.178H135.437C141.827 104.178 147.204 102.022 151.569 97.7139C155.934 93.4043 158.117 88.1123 158.117 81.8379C158.117 75.5645 155.934 70.2725 151.569 65.9629ZM142.364 89.0625C140.53 90.9639 138.221 91.915 135.437 91.915H123.765V71.7617H135.437C138.221 71.7617 140.53 72.7129 142.364 74.6133C144.199 76.5146 145.116 78.9229 145.116 81.8379C145.116 84.6904 144.199 87.0986 142.364 89.0625Z" fill="#323232"/>
<path fill-rule="evenodd" clip-rule="evenodd" d="M186.646 116.25C179.371 116.25 174.91 113.271 173.266 107.314H209.041C209.103 106.965 209.159 106.619 209.208 106.277C209.238 106.074 209.266 105.873 209.292 105.673C209.349 105.221 209.395 104.774 209.43 104.335C209.487 103.632 209.515 102.945 209.515 102.276C209.515 95.1787 207.237 89.2217 202.683 84.4053C198.191 79.5889 192.466 77.1807 185.507 77.1807C178.168 77.1807 172.158 79.5889 167.477 84.4053C162.795 89.1582 160.455 95.1152 160.455 102.276C160.455 109.501 162.827 115.49 167.572 120.243C172.316 124.996 178.611 127.372 186.456 127.372C195.565 127.372 202.461 123.981 207.143 117.201L197.273 111.497C194.87 114.666 191.327 116.25 186.646 116.25ZM197.273 97.8086H173.076C173.771 94.7666 175.195 92.4219 177.346 90.7744C179.497 89.0625 182.217 88.207 185.507 88.207C188.291 88.207 190.758 89 192.909 90.584C195.123 92.168 196.578 94.5762 197.273 97.8086Z" fill="#323232"/>
<path d="M350 126.042H335.766L318.495 104.463V126.042H306.254V59.499H318.495V99.4248L334.817 78.5117H349.43L330.357 101.991L350 126.042Z" fill="#323232"/>
<path d="M233.244 90.2988H243.967V78.5117H233.244V65.2031L221.003 68.9102V78.5117H212.747V90.2988H221.003V110.071C221.003 116.599 222.711 121.13 226.127 123.665C229.606 126.2 235.553 126.992 243.967 126.042V114.92C242.823 114.981 241.769 115.021 240.806 115.037C239.799 115.055 238.892 115.047 238.084 115.015C236.502 114.888 235.3 114.444 234.478 113.684C233.655 112.923 233.244 111.719 233.244 110.071V90.2988Z" fill="#323232"/>
<path fill-rule="evenodd" clip-rule="evenodd" d="M274.839 116.25C267.563 116.25 263.104 113.271 261.459 107.314H297.234C297.55 105.54 297.708 103.86 297.708 102.276C297.708 95.1787 295.431 89.2217 290.876 84.4053C286.384 79.5889 280.659 77.1807 273.7 77.1807C266.362 77.1807 260.352 79.5889 255.67 84.4053C250.989 89.1582 248.648 95.1152 248.648 102.276C248.648 109.501 251.021 115.49 255.765 120.243C260.51 124.996 266.804 127.372 274.649 127.372C283.759 127.372 290.654 123.982 295.336 117.201L285.467 111.497C283.063 114.666 279.52 116.25 274.839 116.25ZM285.467 97.8086H261.269C261.965 94.7666 263.388 92.4219 265.539 90.7744C267.69 89.0635 270.41 88.207 273.7 88.207C276.483 88.207 278.951 89 281.102 90.584C283.316 92.168 284.771 94.5762 285.467 97.8086Z" fill="#323232"/>
</svg>
